{"title":"Eric Clapton - One More Car One More Rider[DvDrip-DTS]","uid":5446453,"size":2460710148,"categoryP":"video","categoryS":"music_videos","magnet":"?xt=urn:btih:176264d76649ff62209d9772780bfb10fae35061&amp;dn=Eric+Clapton+-+One+More+Car+One+More+Rider%5BDvDrip-DTS%5D&amp;tr=udp%3A%2F%2Ftracker.openbittorrent.com%3A80&amp;tr=udp%3A%2F%2Fopen.demonii.com%3A1337&amp;tr=udp%3A%2F%2Ftracker.coppersurfer.tk%3A6969&amp;tr=udp%3A%2F%2Fexodus.desync.com%3A6969","seeders":2,"leechers":1,"uploader":"Harrharrr","files":-1,"time":1269031088,"description":"Enjoy, Clapton at hees best. Original DTS track of the dvd. The info is a tad bugged, audio is for the full duration of the consert(2h 4m) Consert from 2001\n\nGeneral\nComplete name                    : K:HQ Music &amp; StuffEric Clapton - One More Car One More Rider[DvDrip-DTS]Eric Clapton - One More Car One More Rider.avi\nFormat                           : AVI\nFormat/Info                      : Audio Video Interleave\nFormat profile                   : OpenDML\nFile size                        : 2.29 GiB\nDuration                         : 49h 2mn\nOverall bit rate                 : 111 Kbps\nWriting application              : VirtualDubMod 1.5.4.1 (build 2178/release)\nWriting library                  : VirtualDubMod build 2178/release\n\nVideo\nID                               : 0\nFormat                           : MPEG-4 Visual\nFormat profile                   : Advanced Simple@L5\nFormat settings, BVOP            : Yes\nFormat settings, QPel            : No\nFormat settings, GMC             : No warppoints\nFormat settings, Matrix          : Custom\nCodec ID                         : XVID\nCodec ID/Hint                    : XviD\nDuration                         : 2h 4mn\nBit rate                         : 1 864 Kbps\nWidth                            : 720 pixels\nHeight                           : 416 pixels\nDisplay aspect ratio             : 16:9\nFrame rate                       : 25.000 fps\nResolution                       : 8 bits\nColorimetry                      : 4:2:0\nScan type                        : Progressive\nBits/(Pixel*Frame)               : 0.249\nStream size                      : 1.63 GiB (71%)\nWriting library                  : XviD 1.2.1 (UTC 2008-12-04)\n\nAudio\nID                               : 1\nFormat                           : DTS\nFormat/Info                      : Digital Theater Systems\nCodec ID                         : 2001\nCodec ID/Info                    : Digital Theater Systems\nDuration                         : 49h 2mn\nBit rate mode                    : Constant\nBit rate                         : 32.0 Kbps\nChannel(s)                       : 5 channels\nChannel positions                : Front: L C R, Side: L R\nSampling rate                    : 48.0 KHz\nResolution                       : 16 bits\nStream size                      : 674 MiB (29%)\nAlignment                        : Split accross interleaves\nInterleave, duration             : 96 ms (2.40 video frames)\nInterleave, preload duration     : 96 ms\nLanguage                         : English\n","torrent":{"xt":"urn:btih:176264d76649ff62209d9772780bfb10fae35061","amp;dn":"Eric+Clapton+-+One+More+Car+One+More+Rider%5BDvDrip-DTS%5D","amp;tr":["udp%3A%2F%2Ftracker.openbittorrent.com%3A80","udp%3A%2F%2Fopen.demonii.com%3A1337","udp%3A%2F%2Ftracker.coppersurfer.tk%3A6969","udp%3A%2F%2Fexodus.desync.com%3A6969"],"infoHash":"176264d76649ff62209d9772780bfb10fae35061","infoHashBuffer":{"type":"Buffer","data":[23,98,100,215,102,73,255,98,32,157,151,114,120,11,251,16,250,227,80,97]},"announce":[],"urlList":[]}}